<?xml version="1.0" standalone="no"?>
<!DOCTYPE svg PUBLIC "-//W3C//DTD SVG 20010904//EN"
 "http://www.w3.org/TR/2001/REC-SVG-20010904/DTD/svg10.dtd">
<svg version="1.0" xmlns="http://www.w3.org/2000/svg"
 width="1300.000000pt" height="600.000000pt" viewBox="0 0 1300.000000 600.000000"
 preserveAspectRatio="xMidYMid meet">
<metadata>
Created by potrace 1.16, written by Peter Selinger 2001-2019
</metadata>
<g transform="translate(0.000000,600.000000) scale(0.100000,-0.100000)"
fill="#000000" stroke="none">
<path d="M1906 4131 c68 -17 134 -81 120 -117 -9 -22 -24 -17 -41 16 -23 45
-67 63 -141 58 -74 -5 -108 -25 -138 -83 -23 -45 -27 -140 -7 -198 29 -86 153
-124 255 -79 46 21 46 21 46 71 l0 51 -65 0 c-63 0 -65 1 -65 25 0 14 -4 25
-10 25 -5 0 -10 -13 -10 -30 l0 -30 70 0 70 0 0 -39 c0 -36 -3 -41 -43 -60
-90 -43 -183 -18 -225 60 -20 37 -23 54 -19 110 7 113 59 169 155 169 39 0 57
-6 81 -25 16 -14 33 -35 36 -45 10 -31 75 -23 75 9 0 52 -86 122 -147 120
l-28 -1 31 -7z"/>
<path d="M4042 4003 c32 -5 88 -54 88 -77 0 -22 -37 -20 -45 2 -6 21 -45 42
-76 42 -38 0 -77 -29 -89 -66 -15 -45 -8 -125 13 -158 34 -52 134 -42 157 15
8 18 20 29 32 29 45 0 -20 -93 -77 -109 -25 -8 -26 -9 -7 -10 52 -2 95 38 116
107 7 20 4 22 -33 22 -34 0 -41 -3 -41 -19 0 -23 -45 -61 -72 -61 -11 0 -33
13 -49 29 -26 26 -29 36 -29 91 0 55 3 65 29 91 37 37 65 37 103 -1 20 -20 40
-30 60 -30 28 0 30 2 24 28 -10 41 -60 82 -99 81 -29 -2 -30 -2 -5 -6z"/>
<path d="M2223 3960 c-37 -16 -55 -54 -55 -120 0 -69 18 -105 60 -121 36 -14
91 -4 115 20 41 41 41 162 -1 203 -22 22 -87 32 -119 18z m86 -15 c71 -36 66
-184 -8 -214 -82 -35 -146 63 -110 168 11 30 48 60 77 61 7 0 26 -7 41 -15z"/>
<path d="M2558 3941 c-31 -28 -33 -33 -33 -101 0 -68 2 -73 33 -101 22 -20 43
-29 67 -29 24 0 45 9 67 29 31 28 33 33 33 101 0 68 -2 73 -33 101 -22 20 -43
29 -67 29 -24 0 -45 -9 -67 -29z m117 -4 c50 -42 50 -151 0 -194 -36 -31 -70
-29 -106 6 -26 26 -29 36 -29 91 0 55 3 65 29 91 36 35 70 37 106 6z"/>
<path d="M2913 3946 c-24 -21 -28 -32 -31 -92 -2 -56 1 -75 17 -101 21 -34 70
-51 111 -38 74 24 82 203 9 240 -40 21 -74 18 -106 -9z m100 -6 c52 -41 57
-147 9 -195 -32 -32 -63 -32 -95 1 -63 62 -32 214 44 214 9 0 28 -9 42 -20z"/>
<path d="M4783 3960 c-37 -16 -55 -54 -55 -120 0 -69 18 -105 60 -121 36 -14
91 -4 115 20 41 41 41 162 -1 203 -22 22 -87 32 -119 18z m86 -15 c71 -36 66
-184 -8 -214 -82 -35 -146 63 -110 168 11 30 48 60 77 61 7 0 26 -7 41 -15z"/>
<path d="M6381 3956 c-24 -13 -50 -51 -51 -73 0 -10 26 -13 100 -13 95 0 100
1 100 21 0 11 -13 34 -29 50 -33 32 -78 38 -120 15z"/>
<path d="M6951 3956 c-24 -13 -50 -51 -51 -73 0 -10 26 -13 100 -13 95 0 100
1 100 21 0 11 -13 34 -29 50 -33 32 -78 38 -120 15z"/>
<path d="M8533 3946 c-24 -21 -28 -32 -31 -92 -2 -56 1 -75 17 -101 21 -34 70
-51 111 -38 74 24 82 203 9 240 -40 21 -74 18 -106 -9z m100 -6 c52 -41 57
-147 9 -195 -32 -32 -63 -32 -95 1 -63 62 -32 214 44 214 9 0 28 -9 42 -20z"/>
<path d="M11291 3956 c-24 -13 -50 -51 -51 -73 0 -10 26 -13 100 -13 95 0 100
1 100 21 0 11 -13 34 -29 50 -33 32 -78 38 -120 15z"/>
<path d="M9655 3829 c-96 -23 -114 -30 -120 -49 -9 -27 11 -59 41 -66 73 -19
144 26 144 92 0 37 -2 37 -65 23z"/>
<path d="M10801 3824 c-77 -17 -91 -27 -91 -65 0 -37 30 -53 89 -46 56 6 91
41 91 93 0 38 3 37 -89 18z"/>
<path d="M2574 3101 c-26 -12 -54 -49 -54 -73 0 -16 11 -18 101 -18 l101 0 -7
28 c-3 15 -14 35 -24 45 -21 21 -86 31 -117 18z"/>
<path d="M2921 3096 c-24 -13 -50 -51 -51 -73 0 -10 26 -13 100 -13 95 0 100
1 100 21 0 11 -13 34 -29 50 -33 32 -78 38 -120 15z"/>
<path d="M3758 3081 c-31 -28 -33 -33 -33 -101 0 -68 2 -73 33 -101 36 -32 77
-37 121 -15 35 19 51 55 51 116 0 61 -16 97 -51 116 -44 22 -85 17 -121 -15z
m115 -2 c57 -44 57 -154 0 -198 -34 -27 -66 -26 -99 3 -24 20 -28 32 -32 89
-4 63 -3 68 26 97 36 35 69 38 105 9z"/>
<path d="M4648 3081 c-31 -28 -33 -33 -33 -101 0 -68 2 -73 33 -101 36 -32 77
-37 121 -15 35 19 51 55 51 116 0 61 -16 97 -51 116 -44 22 -85 17 -121 -15z
m115 -2 c57 -44 57 -154 0 -198 -34 -27 -66 -26 -99 3 -24 20 -28 32 -32 89
-4 63 -3 68 26 97 36 35 69 38 105 9z"/>
<path d="M6095 3100 c-27 -10 -42 -29 -50 -63 l-7 -27 101 0 c96 0 101 1 101
21 0 11 -13 34 -29 50 -30 30 -73 37 -116 19z"/>
<path d="M6621 3097 c-13 -8 -30 -25 -37 -38 -18 -32 -17 -123 1 -158 29 -57
124 -66 164 -15 41 52 36 158 -9 199 -25 22 -89 29 -119 12z m90 -7 c28 -15
49 -63 49 -110 0 -103 -74 -152 -141 -92 -89 79 -9 256 92 202z"/>
<path d="M7511 3096 c-24 -13 -50 -51 -51 -73 0 -10 26 -13 100 -13 95 0 100
1 100 21 0 11 -13 34 -29 50 -33 32 -78 38 -120 15z"/>
<path d="M8703 3086 c-24 -21 -28 -32 -31 -92 -2 -56 1 -75 17 -101 21 -34 70
-51 111 -38 74 24 82 203 9 240 -40 21 -74 18 -106 -9z m100 -6 c52 -41 57
-147 9 -195 -32 -32 -63 -32 -95 1 -63 62 -32 214 44 214 9 0 28 -9 42 -20z"/>
<path d="M9084 3101 c-26 -12 -54 -49 -54 -73 0 -16 11 -18 101 -18 l101 0 -7
28 c-3 15 -14 35 -24 45 -21 21 -86 31 -117 18z"/>
<path d="M10833 3098 c-46 -22 -67 -116 -42 -187 25 -72 134 -81 170 -13 8 14
14 54 14 90 0 60 -3 66 -33 93 -34 30 -70 36 -109 17z m93 -22 c24 -20 28 -32
32 -89 4 -63 3 -68 -26 -97 -38 -38 -66 -38 -103 -1 -26 26 -29 36 -29 91 0
55 3 65 29 91 36 35 61 37 97 5z"/>
<path d="M11191 3097 c-13 -8 -30 -25 -37 -38 -18 -32 -17 -123 1 -158 29 -57
124 -66 164 -15 41 52 36 158 -9 199 -25 22 -89 29 -119 12z m90 -7 c28 -15
49 -63 49 -110 0 -103 -74 -152 -141 -92 -89 79 -9 256 92 202z"/>
<path d="M12043 3098 c-46 -22 -67 -116 -42 -187 25 -72 134 -81 170 -13 8 14
14 54 14 90 0 60 -3 66 -33 93 -34 30 -70 36 -109 17z m93 -22 c24 -20 28 -32
32 -89 4 -63 3 -68 -26 -97 -38 -38 -66 -38 -103 -1 -26 26 -29 36 -29 91 0
55 3 65 29 91 36 35 61 37 97 5z"/>
<path d="M1498 2201 c-31 -28 -33 -33 -33 -101 0 -68 2 -73 33 -101 22 -20 43
-29 67 -29 24 0 45 9 67 29 31 28 33 33 33 101 0 68 -2 73 -33 101 -22 20 -43
29 -67 29 -24 0 -45 -9 -67 -29z m117 -4 c50 -42 50 -151 0 -194 -36 -31 -70
-29 -106 6 -26 26 -29 36 -29 91 0 55 3 65 29 91 36 35 70 37 106 6z"/>
<path d="M2191 2216 c-24 -13 -50 -51 -51 -73 0 -10 26 -13 100 -13 95 0 100
1 100 21 0 11 -13 34 -29 50 -33 32 -78 38 -120 15z"/>
<path d="M3444 2221 c-26 -12 -54 -49 -54 -73 0 -16 11 -18 101 -18 l101 0 -7
28 c-3 15 -14 35 -24 45 -21 21 -86 31 -117 18z"/>
<path d="M5505 2220 c-27 -10 -42 -29 -50 -63 l-7 -27 101 0 c96 0 101 1 101
21 0 11 -13 34 -29 50 -30 30 -73 37 -116 19z"/>
<path d="M6644 2221 c-26 -12 -54 -49 -54 -73 0 -16 11 -18 101 -18 l101 0 -7
28 c-3 15 -14 35 -24 45 -21 21 -86 31 -117 18z"/>
<path d="M8565 2220 c-27 -10 -42 -29 -50 -63 l-7 -27 101 0 c96 0 101 1 101
21 0 11 -13 34 -29 50 -30 30 -73 37 -116 19z"/>
<path d="M9091 2217 c-13 -8 -30 -25 -37 -38 -18 -32 -17 -123 1 -158 29 -57
124 -66 164 -15 41 52 36 158 -9 199 -25 22 -89 29 -119 12z m90 -7 c28 -15
49 -63 49 -110 0 -103 -74 -152 -141 -92 -89 79 -9 256 92 202z"/>
<path d="M9774 2221 c-26 -12 -54 -49 -54 -73 0 -16 11 -18 101 -18 l101 0 -7
28 c-3 15 -14 35 -24 45 -21 21 -86 31 -117 18z"/>
<path d="M10871 2217 c-13 -8 -30 -25 -37 -38 -18 -32 -17 -123 1 -158 29 -57
124 -66 164 -15 41 52 36 158 -9 199 -25 22 -89 29 -119 12z m90 -7 c28 -15
49 -63 49 -110 0 -103 -74 -152 -141 -92 -89 79 -9 256 92 202z"/>
<path d="M7925 2081 c-84 -19 -95 -25 -95 -55 0 -51 77 -74 139 -41 28 14 51
58 51 96 0 22 -2 22 -95 0z"/>
</g>
</svg>
